<svg xmlns="http://www.w3.org/2000/svg" width="1200" height="630" viewBox="0 0 1200 630">
  <defs>
    <linearGradient id="bg" x1="0%" y1="0%" x2="100%" y2="100%">
      <stop offset="0%" style="stop-color:#fdf2f8;stop-opacity:1" />
      <stop offset="100%" style="stop-color:#fff7ed;stop-opacity:1" />
    </linearGradient>
    <style>
      .title { 
        font-family: 'Inter', -apple-system, BlinkMacSystemFont, 'Segoe UI', Roboto, sans-serif; 
        font-weight: 300; 
        letter-spacing: -0.025em; 
        fill: #1f2937; 
      }
      .subtitle { 
        font-family: 'Inter', -apple-system, BlinkMacSystemFont, 'Segoe UI', Roboto, sans-serif; 
        font-weight: 300; 
        fill: #6b7280; 
      }
    </style>
  </defs>
  
  <!-- Background -->
  <rect width="1200" height="630" fill="url(#bg)"/>
  
  <!-- Central Content Container -->
  <g transform="translate(600, 315)">
    
    <!-- Ballot Box Logo (scaled up) -->
    <g transform="translate(-60, -80) scale(3.75)">
      <!-- Ballot Box Base -->
      <rect x="4" y="12" width="24" height="16" rx="2" ry="2" fill="#fecaca" stroke="#fca5a5" stroke-width="1"/>
      
      <!-- Ballot Box Slot -->
      <rect x="7" y="9" width="18" height="4" rx="2" ry="2" fill="#fca5a5"/>
      <rect x="8" y="10" width="16" height="2" fill="#f87171"/>
      
      <!-- Ballot Paper -->
      <rect x="11" y="4" width="10" height="12" rx="1" ry="1" fill="#fef7f7" stroke="#fed7d7" stroke-width="1"/>
      
      <!-- Ballot Options -->
      <circle cx="13.5" cy="7" r="1" fill="none" stroke="#d946ef" stroke-width="0.8"/>
      <circle cx="13.5" cy="10" r="1" fill="none" stroke="#d946ef" stroke-width="0.8"/>
      
      <!-- Selected Option -->
      <circle cx="13.5" cy="7" r="0.5" fill="#10b981"/>
      
      <!-- Option Labels -->
      <rect x="16" y="6.5" width="3" height="1" fill="#fbcfe8"/>
      <rect x="16" y="9.5" width="2.5" height="1" fill="#fbcfe8"/>
      
      <!-- Motion Lines -->
      <path d="M 14 14 L 16 16" stroke="#10b981" stroke-width="1.5" stroke-linecap="round" opacity="0.7"/>
      <path d="M 16 14 L 18 16" stroke="#10b981" stroke-width="1.5" stroke-linecap="round" opacity="0.5"/>
    </g>
    
    <!-- Title -->
    <text x="0" y="80" text-anchor="middle" class="title" font-size="96">jury duty</text>
    
    <!-- Subtitle -->
    <text x="0" y="130" text-anchor="middle" class="subtitle" font-size="32">Help improve AI through content labeling</text>
    
  </g>
</svg>